<svg version="1.1" xmlns="http://www.w3.org/2000/svg" viewBox="-215.0399963378906 -1756.544009399414 8077.5200055349505 2952.9599670410157"><desc>Created with Snap</desc><defs></defs><g><g transform="matrix(56.9527,0,0,56.9527,3235.2115,-3097.4718)"><title>travel jadi</title><path d="M48.35,44.27c-9.11,0-16.52,5.78-16.52,12.88S39.24,70,48.35,70s16.52-5.78,16.52-12.87S57.46,44.27,48.35,44.27Z" fill="#7adac0" style=""></path><circle cx="27.07" cy="42.19" r="5.15" transform="translate(-22.49 34.7) rotate(-48.72)" fill="#7adac0" style=""></circle><circle cx="39.35" cy="35.28" r="5.15" transform="translate(-7.45 10.73) rotate(-14.2)" fill="#7adac0" style=""></circle><circle cx="56.08" cy="35.13" r="5.15" transform="translate(9.11 81.75) rotate(-76.86)" fill="#7adac0" style=""></circle><circle cx="68.58" cy="41.79" r="5.15" transform="translate(-10.04 58.2) rotate(-43.15)" fill="#7adac0" style=""></circle><desc>Created with Snap</desc><defs></defs></g><g><g transform="matrix(1.024,0,0,-1.024,0,0)"><path d="M129 -234Q111 -234 100 -224Q90 -213 90 -195L90 277Q91 355 127 417Q164 480 226 516Q289 552 367 552Q447 552 510 515Q573 479 609 416Q646 353 646 273Q646 194 610 131Q575 68 514 31Q453 -5 376 -5Q309 -5 254 23Q200 52 167 99L167 -195Q167 -213 156 -224Q146 -234 129 -234ZM367 65Q425 65 471 92Q517 119 543 166Q570 214 570 273Q570 333 543 380Q517 427 471 454Q425 482 367 482Q310 482 264 454Q218 427 192 380Q166 333 166 273Q166 214 192 166Q218 119 264 92Q310 65 367 65ZM1045 -5Q964 -5 901 30Q839 66 803 129Q768 192 768 273Q768 355 801 417Q835 480 894 516Q953 552 1030 552Q1106 552 1162 517Q1219 483 1250 422Q1281 361 1281 283Q1281 267 1271 257Q1261 248 1245 248L820 248L820 312L1253 312L1210 281Q1211 339 1189 385Q1167 431 1126 457Q1086 483 1030 483Q973 483 930 456Q887 429 863 381Q840 334 840 273Q840 212 866 165Q893 118 939 91Q985 64 1045 64Q1081 64 1117 76Q1154 89 1176 108Q1187 117 1201 117Q1215 118 1225 110Q1238 98 1238 84Q1239 70 1227 60Q1194 32 1143 13Q1092 -5 1045 -5ZM1646 0L1625 0Q1572 0 1530 25Q1489 50 1465 93Q1441 137 1441 193L1441 682Q1441 699 1451 710Q1462 721 1479 721Q1496 721 1507 710Q1518 699 1518 682L1518 193Q1518 142 1548 109Q1578 77 1625 77L1652 77Q1668 77 1678 66Q1688 55 1688 38Q1688 21 1676 10Q1664 0 1646 0ZM1631 460L1376 460Q1361 460 1351 469Q1341 479 1341 493Q1341 508 1351 517Q1361 527 1376 527L1631 527Q1646 527 1656 517Q1666 508 1666 493Q1666 479 1656 469Q1646 460 1631 460ZM1868 0Q1850 0 1839 10Q1829 21 1829 39L1829 508Q1829 526 1839 536Q1850 547 1868 547Q1885 547 1895 536Q1906 526 1906 508L1906 39Q1906 21 1895 10Q1885 0 1868 0ZM1867 651Q1845 651 1829 667Q1813 683 1813 706Q1813 731 1829 745Q1846 760 1868 760Q1889 760 1905 745Q1922 731 1922 706Q1922 683 1906 667Q1890 651 1867 651ZM2170 0Q2155 0 2144 10Q2133 21 2133 39L2133 546Q2133 616 2157 669Q2181 722 2228 751Q2275 781 2343 781Q2360 781 2371 771Q2382 761 2382 746Q2382 731 2371 721Q2360 711 2343 711Q2298 711 2268 690Q2239 670 2224 633Q2210 597 2210 550L2210 39Q2210 21 2199 10Q2189 0 2170 0ZM2330 460L2069 460Q2053 460 2043 469Q2034 479 2034 493Q2034 508 2043 517Q2053 527 2069 527L2330 527Q2346 527 2355 517Q2365 508 2365 493Q2365 479 2355 469Q2346 460 2330 460ZM2523 0Q2505 0 2494 10Q2484 21 2484 39L2484 508Q2484 526 2494 536Q2505 547 2523 547Q2540 547 2550 536Q2561 526 2561 508L2561 39Q2561 21 2550 10Q2540 0 2523 0ZM2522 651Q2500 651 2484 667Q2468 683 2468 706Q2468 731 2484 745Q2501 760 2523 760Q2544 760 2560 745Q2577 731 2577 706Q2577 683 2561 667Q2545 651 2522 651ZM3226 0Q3209 0 3198 11Q3187 22 3187 38L3187 298Q3187 360 3163 400Q3140 440 3099 460Q3059 480 3008 480Q2959 480 2919 461Q2880 442 2857 409Q2834 376 2834 334L2779 334Q2781 397 2813 446Q2845 496 2898 524Q2951 553 3016 553Q3087 553 3143 523Q3199 494 3231 437Q3264 380 3264 298L3264 38Q3264 22 3253 11Q3242 0 3226 0ZM2796 0Q2778 0 2767 10Q2757 21 2757 38L2757 508Q2757 526 2767 536Q2778 547 2796 547Q2813 547 2823 536Q2834 526 2834 508L2834 38Q2834 21 2823 10Q2813 0 2796 0ZM3683 -5Q3604 -5 3541 31Q3478 68 3441 131Q3405 194 3405 274Q3405 353 3440 416Q3476 479 3537 515Q3598 552 3675 552Q3742 552 3796 523Q3850 495 3883 448L3883 742Q3883 760 3894 770Q3905 781 3922 781Q3939 781 3950 770Q3961 760 3961 742L3961 270Q3959 192 3922 129Q3886 67 3823 31Q3761 -5 3683 -5ZM3683 65Q3741 65 3786 92Q3832 120 3858 167Q3885 214 3885 274Q3885 333 3858 380Q3832 428 3786 455Q3741 482 3683 482Q3626 482 3580 455Q3534 428 3507 380Q3480 333 3480 274Q3480 214 3507 167Q3534 120 3580 92Q3626 65 3683 65Z" fill="#210070" style=""></path></g></g></g></svg>